# xmcd
#
# Track frame offsets:
#	150
#	6810
#	54877
#	64264
#	100694
#	111339
#	128051
#	148737
#	190299
#	205518
#	238079
#	251269
#	271378
#	276435
#
# Disc length: 3786 seconds
#
# Revision: 0
# Processed by: cddbd v1.5.2PL0 Copyright (c) Steve Scherf et al.
# Submitted via: EasyCDDAExtractor 9.0.0.1
#
DISCID=c80ec80e
DTITLE=Frank Zappa - Fillmore West San Fransisco 06-11-70
DYEAR=1970
DGENRE=Progressive Rock
TTITLE0=Palladin And Hey Boy 
TTITLE1=Call Any Vegetable
TTITLE2=The Sanzini Brothers 
TTITLE3=Penis Dimension
TTITLE4=The Sanzini Brothers
TTITLE5=Little House I Used To Live In
TTITLE6=Mudshark (Dr John References)
TTITLE7=Holiday In Berlin
TTITLE8=Cruising For Burgers
TTITLE9=Easy Meat
TTITLE10=Daddy Daddy Daddy
TTITLE11=Do You Like My New Car?
TTITLE12=Happy Together
TTITLE13=Who Are The Brain Police (Cut)
EXTD=
EXTT0=
EXTT1=
EXTT2=
EXTT3=
EXTT4=
EXTT5=
EXTT6=
EXTT7=
EXTT8=
EXTT9=
EXTT10=
EXTT11=
EXTT12=
EXTT13=
PLAYORDER=
